<svg width="38" height="37" viewBox="0 0 38 37" fill="none" xmlns="http://www.w3.org/2000/svg">
<g id="camera" clip-path="url(#clip0_1107_30515)">
<path id="Vector" d="M35.504 29.0245C35.504 29.8348 35.1821 30.612 34.6091 31.185C34.0361 31.758 33.2589 32.0799 32.4486 32.0799H4.94993C4.13959 32.0799 3.36244 31.758 2.78944 31.185C2.21644 30.612 1.89453 29.8348 1.89453 29.0245V12.2198C1.89453 11.4094 2.21644 10.6323 2.78944 10.0593C3.36244 9.48628 4.13959 9.16437 4.94993 9.16437H11.0607L14.1161 4.58127H23.2824L26.3378 9.16437H32.4486C33.2589 9.16437 34.0361 9.48628 34.6091 10.0593C35.1821 10.6323 35.504 11.4094 35.504 12.2198V29.0245Z" stroke="#E5E5E5" stroke-width="3.0554" stroke-linecap="round" stroke-linejoin="round"/>
<path id="Vector_2" d="M18.7007 25.9691C22.0756 25.9691 24.8115 23.2332 24.8115 19.8583C24.8115 16.4834 22.0756 13.7475 18.7007 13.7475C15.3257 13.7475 12.5898 16.4834 12.5898 19.8583C12.5898 23.2332 15.3257 25.9691 18.7007 25.9691Z" stroke="#E5E5E5" stroke-width="3.0554" stroke-linecap="round" stroke-linejoin="round"/>
</g>
<defs>
<clipPath id="clip0_1107_30515">
<rect width="36.6648" height="36.6648" fill="white" transform="translate(0.367188)"/>
</clipPath>
</defs>
</svg>
