<svg width="38" height="37" viewBox="0 0 38 37" fill="none" xmlns="http://www.w3.org/2000/svg">
<g id="gift">
<path id="Vector" d="M31.2206 18.6668V33.9438H6.77734V18.6668" stroke="#E5E5E5" stroke-width="3.0554" stroke-linecap="round" stroke-linejoin="round"/>
<path id="Vector_2" d="M34.2767 11.0283H3.72266V18.6668H34.2767V11.0283Z" stroke="#E5E5E5" stroke-width="3.0554" stroke-linecap="round" stroke-linejoin="round"/>
<path id="Vector_3" d="M19 33.9438V11.0283" stroke="#E5E5E5" stroke-width="3.0554" stroke-linecap="round" stroke-linejoin="round"/>
<path id="Vector_4" d="M18.9986 11.0283H12.1239C11.111 11.0283 10.1396 10.6259 9.42332 9.90965C8.70707 9.1934 8.30469 8.22195 8.30469 7.20903C8.30469 6.1961 8.70707 5.22465 9.42332 4.5084C10.1396 3.79216 11.111 3.38977 12.1239 3.38977C17.4709 3.38977 18.9986 11.0283 18.9986 11.0283Z" stroke="#E5E5E5" stroke-width="3.0554" stroke-linecap="round" stroke-linejoin="round"/>
<path id="Vector_5" d="M19 11.0283H25.8747C26.8876 11.0283 27.859 10.6259 28.5753 9.90965C29.2915 9.1934 29.6939 8.22195 29.6939 7.20903C29.6939 6.1961 29.2915 5.22465 28.5753 4.5084C27.859 3.79216 26.8876 3.38977 25.8747 3.38977C20.5277 3.38977 19 11.0283 19 11.0283Z" stroke="#E5E5E5" stroke-width="3.0554" stroke-linecap="round" stroke-linejoin="round"/>
</g>
</svg>
