<svg width="38" height="38" viewBox="0 0 38 38" fill="none" xmlns="http://www.w3.org/2000/svg">
<g id="headphones">
<path id="Vector" d="M5.46484 28.1671V19.0009C5.46484 15.3543 6.91343 11.8571 9.49193 9.27864C12.0704 6.70014 15.5676 5.25156 19.2142 5.25156C22.8607 5.25156 26.3579 6.70014 28.9364 9.27864C31.5149 11.8571 32.9635 15.3543 32.9635 19.0009V28.1671" stroke="#E5E5E5" stroke-width="3.0554" stroke-linecap="round" stroke-linejoin="round"/>
<path id="Vector_2" d="M32.9635 29.6948C32.9635 30.5052 32.6416 31.2823 32.0686 31.8553C31.4956 32.4283 30.7184 32.7502 29.9081 32.7502H28.3804C27.57 32.7502 26.7929 32.4283 26.2199 31.8553C25.6469 31.2823 25.325 30.5052 25.325 29.6948V25.1117C25.325 24.3014 25.6469 23.5242 26.2199 22.9512C26.7929 22.3782 27.57 22.0563 28.3804 22.0563H32.9635V29.6948ZM5.46484 29.6948C5.46484 30.5052 5.78675 31.2823 6.35975 31.8553C6.93275 32.4283 7.7099 32.7502 8.52025 32.7502H10.0479C10.8583 32.7502 11.6354 32.4283 12.2084 31.8553C12.7814 31.2823 13.1034 30.5052 13.1034 29.6948V25.1117C13.1034 24.3014 12.7814 23.5242 12.2084 22.9512C11.6354 22.3782 10.8583 22.0563 10.0479 22.0563H5.46484V29.6948Z" stroke="#E5E5E5" stroke-width="3.0554" stroke-linecap="round" stroke-linejoin="round"/>
</g>
</svg>
