<svg width="38" height="37" viewBox="0 0 38 37" fill="none" xmlns="http://www.w3.org/2000/svg">
<g id="music">
<path id="Vector" d="M14.1211 27.8319V7.97182L32.4535 4.91641V24.7765" stroke="#E5E5E5" stroke-width="3.0554" stroke-linecap="round" stroke-linejoin="round"/>
<path id="Vector_2" d="M9.53623 32.4151C12.0674 32.4151 14.1193 30.3631 14.1193 27.8319C14.1193 25.3008 12.0674 23.2488 9.53623 23.2488C7.00505 23.2488 4.95312 25.3008 4.95312 27.8319C4.95312 30.3631 7.00505 32.4151 9.53623 32.4151Z" stroke="#E5E5E5" stroke-width="3.0554" stroke-linecap="round" stroke-linejoin="round"/>
<path id="Vector_3" d="M27.8683 29.3596C30.3994 29.3596 32.4514 27.3077 32.4514 24.7765C32.4514 22.2453 30.3994 20.1934 27.8683 20.1934C25.3371 20.1934 23.2852 22.2453 23.2852 24.7765C23.2852 27.3077 25.3371 29.3596 27.8683 29.3596Z" stroke="#E5E5E5" stroke-width="3.0554" stroke-linecap="round" stroke-linejoin="round"/>
</g>
</svg>
