<svg width="38" height="37" viewBox="0 0 38 37" fill="none" xmlns="http://www.w3.org/2000/svg">
<g id="shopping-cart" clip-path="url(#clip0_1107_30505)">
<path id="Vector" d="M14.1215 33.6112C14.9652 33.6112 15.6492 32.9272 15.6492 32.0835C15.6492 31.2397 14.9652 30.5558 14.1215 30.5558C13.2777 30.5558 12.5938 31.2397 12.5938 32.0835C12.5938 32.9272 13.2777 33.6112 14.1215 33.6112Z" stroke="#E5E5E5" stroke-width="3.0554" stroke-linecap="round" stroke-linejoin="round"/>
<path id="Vector_2" d="M30.9261 33.6112C31.7699 33.6112 32.4538 32.9272 32.4538 32.0835C32.4538 31.2397 31.7699 30.5558 30.9261 30.5558C30.0824 30.5558 29.3984 31.2397 29.3984 32.0835C29.3984 32.9272 30.0824 33.6112 30.9261 33.6112Z" stroke="#E5E5E5" stroke-width="3.0554" stroke-linecap="round" stroke-linejoin="round"/>
<path id="Vector_3" d="M1.89844 1.52942H8.00924L12.1035 21.9853C12.2432 22.6887 12.6258 23.3205 13.1844 23.7702C13.743 24.2198 14.4419 24.4587 15.1589 24.4449H30.0082C30.7251 24.4587 31.4241 24.2198 31.9826 23.7702C32.5412 23.3205 32.9239 22.6887 33.0636 21.9853L35.5079 9.16793H9.53695" stroke="#E5E5E5" stroke-width="3.0554" stroke-linecap="round" stroke-linejoin="round"/>
</g>
<defs>
<clipPath id="clip0_1107_30505">
<rect width="36.6648" height="36.6648" fill="white" transform="translate(0.371094)"/>
</clipPath>
</defs>
</svg>
