<svg width="33" height="33" viewBox="0 0 33 33" fill="none" xmlns="http://www.w3.org/2000/svg">
<path id="Vector" d="M19.7628 8.57468C19.4829 8.86025 19.3261 9.24419 19.3261 9.64407C19.3261 10.044 19.4829 10.4279 19.7628 10.7135L22.2072 13.1578C22.4927 13.4377 22.8767 13.5945 23.2766 13.5945C23.6764 13.5945 24.0604 13.4377 24.346 13.1578L30.1054 7.39835C30.8736 9.09592 31.1062 10.9873 30.7722 12.8204C30.4382 14.6535 29.5534 16.3413 28.2359 17.6588C26.9184 18.9764 25.2306 19.8611 23.3975 20.1951C21.5644 20.5291 19.673 20.2965 17.9754 19.5283L7.41902 30.0847C6.81126 30.6925 5.98696 31.0339 5.12746 31.0339C4.26796 31.0339 3.44367 30.6925 2.83591 30.0847C2.22815 29.477 1.88672 28.6527 1.88672 27.7932C1.88672 26.9337 2.22815 26.1094 2.83591 25.5016L13.3923 14.9452C12.6241 13.2476 12.3916 11.3563 12.7256 9.52316C13.0595 7.69006 13.9443 6.00227 15.2618 4.68473C16.5794 3.36719 18.2671 2.48246 20.1002 2.14847C21.9334 1.81447 23.8247 2.04706 25.5223 2.81525L19.7781 8.5594L19.7628 8.57468Z" stroke="#E5E5E5" stroke-width="3.0554" stroke-linecap="round" stroke-linejoin="round"/>
</svg>
