<svg width="32" height="32" viewBox="0 0 32 32" fill="none" xmlns="http://www.w3.org/2000/svg">
<rect width="32" height="32" fill="white"/>
<path d="M20.9243 21.5685C21.8531 20.7011 22.5423 19.6541 22.9918 18.4876C23.8307 16.1844 23.621 13.3128 22.0629 11.3686C20.2651 9.12518 17.059 9.60377 14.6019 10.1721C12.0251 10.7703 9.35829 12.1164 8.42941 14.7486C7.89007 16.2741 8.15974 18.0389 8.75901 19.5046C9.20847 20.6412 9.95756 21.7181 11.0962 22.1667C11.1861 22.3163 11.3359 22.4359 11.5756 22.4359C12.6243 22.4359 13.0738 23.5427 13.3135 24.4101C13.3734 24.6195 13.4333 24.8289 13.4633 25.0383C13.2835 25.2177 13.1936 25.487 13.3435 25.7263C13.4034 25.8459 13.5232 25.9356 13.6431 25.9655C13.6731 26.1151 13.703 26.2946 13.733 26.4441C13.3734 26.7133 13.4933 27.4013 14.0027 27.4312C14.0027 27.4611 14.0326 27.491 14.0326 27.521C14.1824 27.9696 14.4222 28.3585 14.8117 28.6576C15.2611 28.9866 15.8304 28.9866 16.3698 28.9866C17.4185 28.9866 18.677 29.1661 19.3662 28.2089C19.6658 27.7902 19.8156 27.3116 19.8755 26.8031C20.0254 26.6535 20.1153 26.4142 20.0553 26.2048C20.0254 26.145 19.9954 26.0852 19.9654 26.0254C19.9954 25.7263 19.9954 25.3972 19.9954 25.0981C20.1452 25.0682 20.295 25.0682 20.4748 25.0383C20.7745 25.0084 21.0441 24.799 21.0441 24.47C21.0441 24.2007 20.7745 23.8717 20.4748 23.9016C20.2351 23.9315 19.9654 23.9615 19.7257 23.9615C19.7257 23.6623 19.7557 23.3632 19.8156 23.0641C20.0553 22.4958 20.4449 22.0471 20.9243 21.5685ZM17.0889 25.4271C17.6283 25.3673 18.1676 25.3075 18.707 25.2776C18.7369 25.3972 18.8268 25.5169 18.9467 25.5767C18.9467 25.6963 18.9467 25.816 18.9167 25.9356C17.5683 26.145 16.22 26.2647 14.8716 26.3245C14.8117 26.1151 14.7817 25.9057 14.7218 25.6963C14.9315 25.6664 15.1413 25.6365 15.351 25.6066C15.9503 25.5468 16.5196 25.487 17.0889 25.4271ZM17.9878 27.85C17.3886 27.9397 16.7294 27.8799 16.1301 27.8799C15.6507 27.8799 15.381 27.7303 15.2012 27.4013C16.3698 27.3415 17.5683 27.2218 18.7369 27.0723C18.6171 27.4611 18.4373 27.7902 17.9878 27.85ZM17.2987 24.2905C17.2987 24.2007 17.2687 24.111 17.2687 24.0213C17.2387 23.8119 17.2387 23.6324 17.2088 23.423C17.1788 23.0342 17.1488 22.6453 17.1189 22.2266C17.059 21.4489 16.999 20.7011 16.9391 19.9234C16.9091 19.5644 16.8792 19.1756 16.8492 18.8166C16.8492 18.6371 16.8492 18.4278 16.8192 18.2483C17.2987 18.0389 18.1376 17.5902 18.1077 16.992C18.1077 16.7527 17.9579 16.5134 17.6882 16.4536C17.4485 16.3938 17.2687 16.4536 17.0889 16.6031C16.999 16.663 16.9691 16.7826 16.9391 16.8723C16.7893 17.0219 16.5795 17.1116 16.3698 17.2014C16.2499 17.1416 16.1301 17.1416 16.0102 17.1715C15.9203 17.2014 15.8005 17.2313 15.7106 17.2612C15.6806 17.2612 15.5608 17.2911 15.5608 17.2911C15.6507 17.2911 15.6507 17.2911 15.5907 17.2911H15.5608C15.351 17.321 15.1712 17.2911 14.9915 17.2911H14.9615C14.9016 17.2911 14.8716 17.2612 14.8117 17.2612C14.7218 17.2313 14.6319 17.2014 14.542 17.1715C14.512 17.1715 14.4521 17.1416 14.4221 17.1116C14.512 17.1416 14.512 17.1416 14.4521 17.1116C14.4222 17.1116 14.3922 17.0817 14.3922 17.0817C14.3023 17.0518 14.2124 16.992 14.1225 16.9322C13.8828 16.7826 13.4933 16.8723 13.3435 17.1416C13.1936 17.4108 13.2835 17.7398 13.5532 17.9193C14.1824 18.3081 14.9615 18.4876 15.7106 18.3978C15.7705 19.2653 15.8304 20.1327 15.9203 21.0301C15.9803 21.9574 16.0702 22.8547 16.1301 23.782C16.1301 23.9615 16.1301 24.1708 16.16 24.3802C15.7705 24.4101 15.381 24.44 14.9915 24.4999C14.8117 24.5298 14.6619 24.5298 14.4821 24.5597C14.3922 24.1708 14.2723 23.782 14.1525 23.423C13.7929 22.4359 13.0738 21.5685 12.055 21.3591C11.9951 21.2694 11.9052 21.2096 11.7853 21.1796C10.7965 20.9404 10.1673 20.0131 9.80774 19.1157C9.32832 17.9492 9.05865 16.5732 9.38825 15.3169C10.0175 12.9838 12.4445 11.7873 14.6319 11.2788C16.6994 10.7703 19.6958 10.1422 21.2239 12.0864C22.5723 13.7914 22.6322 16.3339 21.8531 18.3081C21.6434 18.8465 21.3438 19.3849 20.9842 19.8635C20.5947 20.372 20.0853 20.7609 19.6658 21.2395C18.9167 22.077 18.707 23.094 18.677 24.1409C18.1976 24.2007 17.7481 24.2606 17.2987 24.2905Z" fill="black"/>
<path d="M14.8127 8.31758C15.1123 8.40731 15.4119 8.22784 15.5018 7.92872C15.7116 7.21084 15.7116 6.46304 15.6517 5.71524C15.5618 4.93754 15.4419 4.18974 15.3221 3.41203C15.2921 3.11291 14.9026 2.93344 14.6329 3.02318C14.3033 3.11291 14.1834 3.41203 14.2434 3.71115C14.3333 4.36921 14.4531 5.05718 14.513 5.71524C14.573 6.34339 14.6029 7.00145 14.4231 7.6296C14.3333 7.89881 14.513 8.22784 14.8127 8.31758Z" fill="#00A3C9"/>
<path d="M27.2477 7.21083C26.109 7.92871 25.0004 8.64659 23.8618 9.36448C23.6221 9.51404 23.5022 9.87298 23.652 10.1422C23.8018 10.3815 24.1614 10.5011 24.4311 10.3516C25.5697 9.63368 26.6783 8.9158 27.817 8.19792C28.0567 8.04836 28.1765 7.68942 28.0267 7.42021C27.8469 7.151 27.5173 7.03135 27.2477 7.21083Z" fill="#00A3C9"/>
<path d="M6.66214 13.7017C6.93182 13.8213 7.29138 13.7914 7.4412 13.4923C7.56105 13.253 7.53109 12.8641 7.23145 12.7146C6.75203 12.5052 6.30258 12.2659 5.88309 11.9967C5.67334 11.8771 5.4636 11.7275 5.25385 11.5779C5.16396 11.5181 5.0441 11.4284 4.95421 11.3686C4.92425 11.3386 4.89429 11.3386 4.89429 11.3087C4.83436 11.2788 4.77443 11.219 4.74447 11.1891C4.50476 11.0096 4.17516 10.9498 3.93545 11.1891C3.75567 11.3985 3.69574 11.7873 3.93545 11.9967C4.74447 12.6847 5.67334 13.253 6.66214 13.7017Z" fill="#00A3C9"/>
<path d="M9.1795 9.4542C9.32931 9.66358 9.47913 9.87296 9.62895 10.1123C9.77877 10.3516 10.1383 10.4712 10.408 10.3216C10.6777 10.1422 10.7676 9.81314 10.6178 9.54393C10.2582 8.9457 9.8387 8.37737 9.32931 7.92869C9.11957 7.71931 8.73004 7.6894 8.5203 7.92869C8.31055 8.13808 8.28059 8.49702 8.5203 8.73631C8.73004 8.9457 8.96975 9.18499 9.1795 9.4542Z" fill="#00A3C9"/>
<path d="M20.6853 8.37744C21.1348 7.30061 21.6142 6.19388 22.0636 5.11705C22.1835 4.84784 22.1535 4.4889 21.8539 4.33934C21.6142 4.21969 21.1947 4.24961 21.0748 4.54872C20.6254 5.62555 20.146 6.73229 19.6965 7.80912C19.5767 8.07832 19.6066 8.43726 19.9063 8.58682C20.146 8.70647 20.5655 8.67656 20.6853 8.37744Z" fill="#00A3C9"/>
</svg>
