<svg width="126" height="44" viewBox="0 0 126 44" fill="none" xmlns="http://www.w3.org/2000/svg">
<path d="M47.6416 23.4298C44.5198 23.4298 42.1797 21.1629 42.1797 17.3353C42.1797 13.4978 44.5198 11.2408 47.6416 11.2408C50.7585 11.2408 53.1035 13.5027 53.1035 17.3353C53.1035 21.1678 50.7585 23.4298 47.6416 23.4298ZM47.6416 13.1669C45.7072 13.1669 44.3417 14.6337 44.3417 17.3353C44.3417 20.0368 45.7072 21.5036 47.6416 21.5036C49.581 21.5036 50.9415 20.0368 50.9415 17.3353C50.9415 14.6337 49.581 13.1669 47.6416 13.1669Z" fill="black"/>
<path d="M57.1573 23.2718H55.0547V14.3671H57.0633V15.8783H57.1672C57.5729 14.8856 58.4882 14.2485 59.824 14.2485C61.6644 14.2485 62.8815 15.4635 62.8765 17.597V23.2668H60.7739V17.9279C60.7739 16.7377 60.1258 16.0265 59.0373 16.0265C57.9291 16.0265 57.1524 16.7673 57.1524 18.0564V23.2718H57.1573Z" fill="black"/>
<path d="M67.1183 23.2717H65.0156V11.4037H67.1183V23.2717Z" fill="black"/>
<path d="M69.2106 26.3881L69.7004 24.7534C70.6157 25.0201 71.2341 24.9509 71.62 23.9385L71.7981 23.4594L68.5625 14.372H70.7938L72.8469 21.0937H72.9409L75.004 14.372L77.2501 14.3819L73.6682 24.3484C73.1636 25.7708 72.2186 26.6104 70.581 26.6104C70.0071 26.6055 69.4976 26.5017 69.2106 26.3881Z" fill="black"/>
<path d="M42.4844 28.6106H50.2171V30.4133H44.6414V33.6384H49.8213V35.441H44.6414V38.6809H50.2666V40.4836H42.4844V28.6106Z" fill="black"/>
<path d="M57.1137 40.4786H54.7934L51.6172 31.5789H53.8584L55.9066 38.187H56.0006L58.0537 31.5739H60.29L57.1137 40.4786Z" fill="black"/>
<path d="M61.0469 36.0781C61.0469 33.3321 62.7141 31.4603 65.267 31.4603C67.4636 31.4603 69.3436 32.8333 69.3436 35.9596V36.6016H63.1297C63.1495 38.1277 64.045 39.0167 65.4055 39.0167C66.3109 39.0167 67.0085 38.6216 67.2905 37.8709L69.2546 38.0932C68.8835 39.639 67.4537 40.6564 65.3758 40.6564C62.6894 40.6515 61.0469 38.8735 61.0469 36.0781ZM67.3251 35.1842C67.3152 33.9742 66.4989 33.0901 65.2917 33.0901C64.04 33.0901 63.194 34.0483 63.1297 35.1842H67.3251Z" fill="black"/>
<path d="M71.1094 31.5739H73.1477V33.0556H73.2417C73.5682 32.0233 74.4192 31.4455 75.4433 31.4455C75.6758 31.4455 76.0073 31.4702 76.2002 31.5048V33.4358C76.0221 33.3766 75.5769 33.3124 75.2256 33.3124C74.0729 33.3124 73.217 34.1125 73.217 35.2435V40.4786H71.1143V31.5739H71.1094Z" fill="black"/>
<path d="M77.8122 43.595L78.302 41.9603C79.2172 42.227 79.8356 42.1578 80.2215 41.1454L80.3996 40.6663L77.1641 31.5789H79.3953L81.4485 38.3006H81.5425L83.6056 31.5789L85.8517 31.5887L82.2698 41.5553C81.7651 42.9777 80.8202 43.8173 79.1826 43.8173C78.6038 43.8123 78.0942 43.7086 77.8122 43.595Z" fill="black"/>
<path d="M91.7554 33.1988H89.9942V37.8018C89.9942 38.6463 90.4197 38.834 90.9441 38.834C91.2063 38.834 91.4438 38.7797 91.5575 38.75L91.9138 40.3897C91.6862 40.4638 91.2755 40.5823 90.6769 40.5971C89.0987 40.6416 87.8767 39.8217 87.8915 38.1475V33.1988H86.625V31.5739H87.8915V29.4403H89.9942V31.5739H91.7554V33.1988Z" fill="black"/>
<path d="M95.798 40.4786H93.6953V28.6106H95.7485V33.0901H95.8524C96.263 32.0826 97.1337 31.4603 98.5042 31.4603C100.354 31.4603 101.576 32.6605 101.576 34.8089V40.4786H99.4739V35.1348C99.4739 33.9347 98.8257 33.2334 97.7225 33.2334C96.5945 33.2334 95.793 33.9742 95.793 35.2632V40.4786H95.798Z" fill="black"/>
<path d="M103.547 29.1786C103.547 28.5464 104.091 28.0377 104.764 28.0377C105.432 28.0377 105.976 28.5464 105.976 29.1786C105.976 29.8058 105.432 30.3145 104.764 30.3145C104.096 30.3096 103.547 29.8009 103.547 29.1786ZM103.71 31.5739H105.813V40.4737H103.71V31.5739Z" fill="black"/>
<path d="M110.071 40.4786H107.969V31.5739H109.977V33.0901H110.081C110.487 32.0974 111.402 31.4603 112.738 31.4603C114.578 31.4603 115.796 32.6753 115.791 34.8089V40.4786H113.688V35.1348C113.688 33.9446 113.04 33.2334 111.951 33.2334C110.843 33.2334 110.066 33.9742 110.066 35.2632V40.4786H110.071Z" fill="black"/>
<path d="M117.877 41.7528L119.772 41.2935C120.029 41.817 120.583 42.4097 121.85 42.4097C123.047 42.4097 123.918 41.8714 123.918 40.5626V38.8784H123.814C123.487 39.5304 122.775 40.3502 121.246 40.3502C119.193 40.3502 117.57 38.9031 117.57 35.9991C117.57 33.0704 119.188 31.4603 121.251 31.4603C122.824 31.4603 123.492 32.4036 123.809 33.0457H123.923V31.5739H125.996V40.6218C125.996 42.8986 124.22 44 121.81 44C119.539 44 118.258 42.9974 117.877 41.7528ZM123.923 35.9843C123.923 34.2952 123.181 33.179 121.825 33.179C120.425 33.179 119.708 34.3693 119.708 35.9843C119.708 37.624 120.44 38.7006 121.825 38.7006C123.171 38.7006 123.923 37.6832 123.923 35.9843Z" fill="black"/>
<path d="M28.3138 30.6602C29.8475 29.228 30.9854 27.4994 31.7275 25.5732C33.1127 21.7703 32.7664 17.0291 30.1938 13.8188C27.2253 10.1147 21.9316 10.9049 17.8748 11.8433C13.62 12.8311 9.21687 15.0535 7.68318 19.3997C6.79265 21.9185 7.23791 24.8324 8.22739 27.2524C8.9695 29.1292 10.2063 30.9072 12.0863 31.648C12.2348 31.8949 12.4821 32.0925 12.8779 32.0925C14.6095 32.0925 15.3516 33.9199 15.7474 35.3521C15.8464 35.6978 15.9453 36.0436 15.9948 36.3893C15.6979 36.6856 15.5495 37.1301 15.7969 37.5252C15.8958 37.7228 16.0937 37.8709 16.2916 37.9203C16.3411 38.1672 16.3906 38.4636 16.44 38.7105C15.8464 39.155 16.0443 40.2909 16.8853 40.3403C16.8853 40.3897 16.9348 40.4391 16.9348 40.4885C17.1822 41.2293 17.5779 41.8714 18.2211 42.3653C18.9632 42.9085 19.9032 42.9085 20.7937 42.9085C22.5253 42.9085 24.6032 43.2049 25.7411 41.6244C26.2359 40.933 26.4832 40.1428 26.5822 39.3032C26.8296 39.0562 26.978 38.6611 26.879 38.3154C26.8296 38.2166 26.7801 38.1179 26.7306 38.0191C26.7801 37.5252 26.7801 36.9819 26.7801 36.488C27.0275 36.4387 27.2748 36.4387 27.5717 36.3893C28.0664 36.3399 28.5117 35.9942 28.5117 35.4509C28.5117 35.0064 28.0664 34.4631 27.5717 34.5125C27.1759 34.5619 26.7306 34.6113 26.3348 34.6113C26.3348 34.1174 26.3843 33.6235 26.4832 33.1296C26.879 32.1913 27.5222 31.4504 28.3138 30.6602ZM21.9811 37.0313C22.8716 36.9325 23.7622 36.8338 24.6527 36.7844C24.7022 36.9819 24.8506 37.1795 25.0485 37.2783C25.0485 37.4758 25.0485 37.6734 24.999 37.8709C22.7727 38.2166 20.5464 38.4142 18.3201 38.513C18.2211 38.1673 18.1716 37.8215 18.0727 37.4758C18.419 37.4264 18.7653 37.377 19.1116 37.3277C20.1011 37.2289 21.0411 37.1301 21.9811 37.0313ZM23.4653 41.0318C22.4759 41.1799 21.3874 41.0812 20.398 41.0812C19.6064 41.0812 19.1611 40.8342 18.8643 40.2909C20.7937 40.1922 22.7727 39.9946 24.7022 39.7477C24.5043 40.3897 24.2074 40.933 23.4653 41.0318ZM22.3274 35.1546C22.3274 35.0064 22.278 34.8582 22.278 34.7101C22.2285 34.3644 22.2285 34.068 22.179 33.7223C22.1295 33.0803 22.0801 32.4382 22.0306 31.7468C21.9316 30.4627 21.8327 29.228 21.7338 27.9439C21.6843 27.3512 21.6348 26.7092 21.5853 26.1165C21.5853 25.8202 21.5853 25.4745 21.5359 25.1781C22.3274 24.8324 23.7127 24.0916 23.6632 23.1038C23.6632 22.7087 23.4159 22.3136 22.9706 22.2148C22.5748 22.1161 22.278 22.2148 21.9811 22.4618C21.8327 22.5606 21.7832 22.7581 21.7338 22.9063C21.4864 23.1532 21.1401 23.3014 20.7937 23.4495C20.5959 23.3508 20.398 23.3508 20.2001 23.4002C20.0516 23.4495 19.8537 23.4989 19.7053 23.5483C19.6559 23.5483 19.458 23.5977 19.458 23.5977C19.6064 23.5977 19.6064 23.5977 19.5074 23.5977H19.458C19.1116 23.6471 18.8148 23.5977 18.518 23.5977H18.4685C18.3695 23.5977 18.3201 23.5483 18.2211 23.5483C18.0727 23.4989 17.9243 23.4495 17.7758 23.4002C17.7264 23.4002 17.6274 23.3508 17.5779 23.3014C17.7264 23.3508 17.7264 23.3508 17.6274 23.3014C17.5779 23.3014 17.5285 23.252 17.5285 23.252C17.3801 23.2026 17.2316 23.1038 17.0832 23.0051C16.6874 22.7581 16.0443 22.9063 15.7969 23.3508C15.5495 23.7953 15.6979 24.3385 16.1432 24.6349C17.1822 25.2769 18.4685 25.5732 19.7053 25.4251C19.8043 26.8573 19.9032 28.2896 20.0516 29.7712C20.1506 31.3023 20.299 32.7839 20.398 34.315C20.398 34.6113 20.398 34.957 20.4474 35.3027C19.8043 35.3521 19.1611 35.4015 18.518 35.5003C18.2211 35.5497 17.9737 35.5497 17.6769 35.5991C17.5285 34.957 17.3306 34.315 17.1327 33.7223C16.539 32.0925 15.3516 30.6602 13.6695 30.3145C13.5706 30.1664 13.4221 30.0676 13.2242 30.0182C11.5916 29.6231 10.5527 28.092 9.95897 26.6104C9.16739 24.6843 8.72213 22.4124 9.26634 20.3381C10.3053 16.4858 14.3127 14.5103 17.9243 13.6707C21.338 12.8311 26.2853 11.7939 28.8085 15.0042C31.0348 17.8193 31.1338 22.0173 29.8475 25.2769C29.5011 26.1659 29.0064 27.0549 28.4127 27.8451C27.7696 28.6847 26.9285 29.3267 26.2359 30.117C24.999 31.4998 24.6527 33.179 24.6032 34.9076C23.8117 35.0064 23.0695 35.1052 22.3274 35.1546Z" fill="black"/>
<path d="M18.2223 8.78123C18.7171 8.92939 19.2118 8.63307 19.3602 8.13918C19.7065 6.95386 19.7065 5.71916 19.6076 4.48445C19.4592 3.20036 19.2613 1.96565 19.0634 0.681555C19.0139 0.187673 18.3707 -0.108657 17.9255 0.0395081C17.3813 0.187673 17.1834 0.681556 17.2823 1.17544C17.4307 2.26198 17.6286 3.39791 17.7276 4.48445C17.8265 5.5216 17.876 6.60815 17.5792 7.6453C17.4307 8.08979 17.7276 8.63307 18.2223 8.78123Z" fill="#00A3C9"/>
<path d="M38.7491 6.95386C36.8691 8.13918 35.0385 9.3245 33.1585 10.5098C32.7628 10.7568 32.5649 11.3494 32.8122 11.7939C33.0596 12.189 33.6533 12.3866 34.0985 12.1396C35.9786 10.9543 37.8091 9.76899 39.6891 8.58367C40.0849 8.33673 40.2828 7.74407 40.0354 7.29958C39.7386 6.85508 39.1944 6.65753 38.7491 6.95386Z" fill="#00A3C9"/>
<path d="M4.76317 17.6711C5.20844 17.8687 5.80212 17.8193 6.04949 17.3254C6.24739 16.9303 6.19791 16.2882 5.70317 16.0413C4.91159 15.6956 4.16948 15.3005 3.47685 14.856C3.13053 14.6584 2.78422 14.4115 2.4379 14.1645C2.28948 14.0658 2.09158 13.9176 1.94316 13.8188C1.89369 13.7694 1.84421 13.7694 1.84421 13.7201C1.74527 13.6707 1.64632 13.5719 1.59684 13.5225C1.20105 13.2262 0.656841 13.1274 0.26105 13.5225C-0.0357934 13.8682 -0.134741 14.5103 0.26105 14.856C1.59684 15.9919 3.13053 16.9303 4.76317 17.6711Z" fill="#00A3C9"/>
<path d="M8.92171 10.658C9.16908 11.0037 9.41645 11.3494 9.66382 11.7445C9.91119 12.1396 10.5049 12.3372 10.9501 12.0902C11.3954 11.7939 11.5438 11.2506 11.2965 10.8062C10.7028 9.81839 10.0101 8.88001 9.16908 8.13919C8.82276 7.79347 8.1796 7.74408 7.83329 8.13919C7.48697 8.4849 7.4375 9.07756 7.83329 9.47267C8.1796 9.81839 8.57539 10.2135 8.92171 10.658Z" fill="#00A3C9"/>
<path d="M27.9207 8.88001C28.6628 7.10203 29.4544 5.27467 30.1965 3.49669C30.3944 3.0522 30.3449 2.45954 29.8502 2.2126C29.4544 2.01504 28.7618 2.06443 28.5639 2.55831C27.8218 4.33629 27.0302 6.16366 26.2881 7.94163C26.0902 8.38613 26.1397 8.97879 26.6344 9.22573C27.0302 9.42328 27.7228 9.37389 27.9207 8.88001Z" fill="#00A3C9"/>
</svg>
