<svg width="182" height="36" viewBox="0 0 182 36" fill="none" xmlns="http://www.w3.org/2000/svg">
<g id="Group">
<path id="Vector" d="M54.4863 31.2873H5.33494L0 0L59.9087 4.10182L54.4863 31.2873Z" fill="#FF0000"/>
<g id="Group_2">
<path id="Vector_2" d="M10.5833 29.3673C9.66495 29.3673 8.92156 29.2801 8.26562 29.0619V26.3128C8.79037 26.4437 9.35885 26.531 9.92733 26.531C10.5395 26.531 10.9331 26.3564 11.2392 26.051C11.5453 25.7455 11.6328 25.2219 11.6328 24.611V10.8219H15.1311V25.091C15.1311 26.4437 14.7375 27.491 13.9504 28.2328C13.1633 28.9746 12.0263 29.3673 10.5833 29.3673ZM11.4578 7.50553C11.4578 6.37098 12.1138 5.80371 13.3819 5.80371C14.6501 5.80371 15.306 6.32735 15.306 7.50553C15.306 8.02917 15.1311 8.46553 14.825 8.77098C14.5189 9.07644 14.0378 9.20735 13.3819 9.20735C12.1138 9.20735 11.4578 8.64007 11.4578 7.50553Z" fill="white"/>
<path id="Vector_3" d="M27.9448 23.6945L27.4638 22.0363H27.2889C26.939 22.6472 26.3706 23.1272 25.7146 23.4327C25.0587 23.7381 24.2278 23.9127 23.3533 23.9127C21.8227 23.9127 20.6858 23.52 19.9424 22.6909C19.199 21.8618 18.7617 20.7272 18.7617 19.2V10.8218H22.26V18.3272C22.26 19.2436 22.435 19.9418 22.7411 20.4218C23.0909 20.9018 23.6156 21.12 24.3153 21.12C25.2773 21.12 26.0207 20.7709 26.458 20.1163C26.8953 19.4618 27.114 18.3709 27.114 16.8436V10.8218H30.6123V23.6945H27.9448Z" fill="white"/>
<path id="Vector_4" d="M43.3375 19.8547C43.3375 21.1638 42.8565 22.1674 41.9382 22.8656C41.0199 23.5638 39.6643 23.9129 37.8276 23.9129C36.9093 23.9129 36.0785 23.8692 35.4226 23.7383C34.7666 23.6074 34.1544 23.4329 33.5859 23.171V20.291C34.2419 20.5965 34.9853 20.8583 35.8161 21.0329C36.647 21.251 37.3466 21.3383 38.0026 21.3383C39.2707 21.3383 39.9266 20.9892 39.9266 20.2474C39.9266 19.9856 39.8392 19.7674 39.6643 19.5928C39.4893 19.4183 39.1395 19.2001 38.746 18.9819C38.3087 18.7638 37.7839 18.5019 37.0843 18.2401C36.0785 17.8474 35.3788 17.4547 34.8978 17.1056C34.4168 16.7129 34.1107 16.3201 33.892 15.8401C33.6734 15.4038 33.5859 14.8365 33.5859 14.1819C33.5859 13.0474 34.0232 12.1747 34.8978 11.5201C35.7724 10.9092 37.0405 10.6038 38.6585 10.6038C40.189 10.6038 41.7195 10.9529 43.2063 11.6074L42.1568 14.1383C41.5009 13.8329 40.8887 13.6147 40.3202 13.4401C39.7955 13.2656 39.1832 13.1783 38.6148 13.1783C37.5653 13.1783 37.0405 13.4401 37.0405 14.0074C37.0405 14.3129 37.2154 14.5747 37.5653 14.8365C37.9151 15.0547 38.6148 15.4038 39.7517 15.8401C40.7575 16.2765 41.5009 16.6692 41.9819 17.0183C42.4629 17.3674 42.8128 17.7601 43.0314 18.2401C43.25 18.6765 43.3375 19.2438 43.3375 19.8547Z" fill="white"/>
<path id="Vector_5" d="M51.5148 21.12C52.127 21.12 52.8704 20.9891 53.7449 20.7273V23.3455C52.8704 23.7382 51.7771 23.9128 50.509 23.9128C49.1097 23.9128 48.0602 23.5637 47.448 22.8655C46.8358 22.1673 46.4859 21.0764 46.4859 19.68V13.44H44.8242V11.9564L46.7483 10.7782L47.7541 8.07275H49.9842V10.8218H53.6137V13.44H49.9842V19.6364C49.9842 20.1164 50.1154 20.5091 50.4215 20.7273C50.6839 20.9891 51.0775 21.12 51.5148 21.12Z" fill="white"/>
</g>
<g id="Group_3">
<path id="Vector_6" d="M66.8179 23.9128C64.7627 23.9128 63.101 23.3455 61.964 22.211C60.827 21.0764 60.2148 19.4619 60.2148 17.3673C60.2148 15.2291 60.7396 13.5273 61.8328 12.3491C62.926 11.171 64.4128 10.5601 66.3369 10.5601C68.1735 10.5601 69.5728 11.0837 70.5786 12.131C71.5844 13.1782 72.1091 14.6182 72.1091 16.4073V18.1091H63.8006C63.8443 19.1128 64.1504 19.8982 64.6752 20.4655C65.2437 21.0328 65.9871 21.2946 66.9928 21.2946C67.78 21.2946 68.5233 21.2073 69.1793 21.0328C69.8352 20.8582 70.5786 20.5964 71.3657 20.2473V22.9528C70.7535 23.2582 70.0976 23.4764 69.3979 23.651C68.6545 23.8255 67.8237 23.9128 66.8179 23.9128ZM66.3369 13.091C65.5935 13.091 65.025 13.3091 64.5877 13.7891C64.1505 14.2691 63.9318 14.9237 63.8443 15.7964H68.7857C68.7857 14.9237 68.5233 14.2691 68.0861 13.7891C67.6488 13.3091 67.0803 13.091 66.3369 13.091Z" fill="white"/>
<path id="Vector_7" d="M77.5305 23.6945L72.6328 10.8218H76.306L78.7986 18.1527C79.061 19.069 79.2359 19.9418 79.3233 20.7709H79.4108C79.4545 20.0291 79.6294 19.1563 79.9356 18.1527L82.4281 10.8218H86.1013L81.2037 23.6945H77.5305Z" fill="white"/>
<path id="Vector_8" d="M93.275 23.9128C91.2197 23.9128 89.558 23.3455 88.421 22.211C87.2841 21.0764 86.6719 19.4619 86.6719 17.3673C86.6719 15.2291 87.1966 13.5273 88.2899 12.3491C89.3831 11.171 90.8699 10.5601 92.7939 10.5601C94.6305 10.5601 96.0299 11.0837 97.0356 12.131C98.0414 13.1782 98.5662 14.6182 98.5662 16.4073V18.1091H90.2576C90.3014 19.1128 90.6075 19.8982 91.1322 20.4655C91.7007 21.0328 92.4441 21.2946 93.4499 21.2946C94.237 21.2946 94.9804 21.2073 95.6363 21.0328C96.2923 20.8582 97.0356 20.5964 97.8228 20.2473V22.9528C97.2106 23.2582 96.5546 23.4764 95.855 23.651C95.1553 23.8255 94.2807 23.9128 93.275 23.9128ZM92.7939 13.091C92.0505 13.091 91.4821 13.3091 91.0448 13.7891C90.6075 14.2691 90.3888 14.9237 90.3014 15.7964H95.2428C95.2428 14.9237 94.9804 14.2691 94.5431 13.7891C94.1058 13.3091 93.5373 13.091 92.7939 13.091Z" fill="white"/>
<path id="Vector_9" d="M108.141 10.5601C108.622 10.5601 109.016 10.6037 109.322 10.6473L109.059 13.9637C108.797 13.8764 108.447 13.8328 108.01 13.8328C106.873 13.8328 105.998 14.1382 105.386 14.7055C104.774 15.2728 104.424 16.1019 104.424 17.1055V23.651H100.926V10.8219H103.593L104.118 13.0037H104.293C104.686 12.2619 105.211 11.6946 105.911 11.2582C106.567 10.7782 107.31 10.5601 108.141 10.5601Z" fill="white"/>
<path id="Vector_10" d="M109.324 10.8218H113.172L115.621 18.0654C115.84 18.6763 115.971 19.4181 116.058 20.2909H116.146C116.233 19.5054 116.408 18.7636 116.627 18.0654L119.032 10.8218H122.793L117.327 25.3527C116.846 26.7054 116.102 27.709 115.184 28.3636C114.266 29.0181 113.172 29.3672 111.948 29.3672C111.336 29.3672 110.724 29.28 110.155 29.1927V26.3563C110.592 26.4436 111.03 26.4872 111.554 26.4872C112.167 26.4872 112.735 26.3127 113.172 25.92C113.61 25.5272 114.003 24.96 114.266 24.2181L114.484 23.5636L109.324 10.8218Z" fill="white"/>
<path id="Vector_11" d="M129.569 21.12C130.182 21.12 130.925 20.9891 131.8 20.7273V23.3455C130.925 23.7382 129.832 23.9128 128.564 23.9128C127.164 23.9128 126.115 23.5637 125.503 22.8655C124.89 22.1673 124.541 21.0764 124.541 19.68V13.44H122.879V11.9564L124.803 10.7782L125.809 8.07275H128.039V10.8218H131.668V13.44H128.039V19.6364C128.039 20.1164 128.17 20.5091 128.476 20.7273C128.739 20.9891 129.132 21.12 129.569 21.12Z" fill="white"/>
<path id="Vector_12" d="M145.836 23.6946H142.337V16.1891C142.337 14.3127 141.638 13.3964 140.238 13.3964C139.276 13.3964 138.533 13.7455 138.096 14.4C137.658 15.0546 137.44 16.1455 137.44 17.6291V23.6946H133.941V5.76001H137.44V9.42546C137.44 9.68728 137.396 10.3855 137.352 11.4327L137.309 12.48H137.483C138.271 11.2146 139.495 10.6036 141.2 10.6036C142.731 10.6036 143.868 10.9964 144.655 11.8255C145.442 12.6546 145.836 13.7891 145.836 15.3164V23.6946Z" fill="white"/>
<path id="Vector_13" d="M148.852 7.50553C148.852 6.37098 149.507 5.80371 150.776 5.80371C152.044 5.80371 152.7 6.37098 152.7 7.50553C152.7 8.02917 152.525 8.46553 152.219 8.77098C151.913 9.07644 151.432 9.20735 150.776 9.20735C149.464 9.20735 148.852 8.64007 148.852 7.50553ZM152.525 23.6946H149.026V10.8219H152.525V23.6946Z" fill="white"/>
<path id="Vector_14" d="M167.655 23.6947H164.157V16.1892C164.157 15.2729 163.982 14.5747 163.676 14.0947C163.326 13.6147 162.801 13.3965 162.102 13.3965C161.14 13.3965 160.396 13.7456 159.959 14.4001C159.522 15.0547 159.303 16.1456 159.303 17.6729V23.7383H155.805V10.8219H158.516L158.997 12.4801H159.172C159.565 11.8692 160.09 11.3892 160.79 11.0838C161.489 10.7783 162.277 10.6038 163.151 10.6038C164.638 10.6038 165.775 10.9965 166.562 11.8256C167.349 12.6547 167.743 13.7892 167.743 15.3165V23.6947H167.655Z" fill="white"/>
<path id="Vector_15" d="M181.999 10.8219V12.611L179.988 13.1347C180.338 13.7019 180.556 14.3565 180.556 15.0547C180.556 16.451 180.075 17.4983 179.113 18.2838C178.151 19.0692 176.795 19.4619 175.09 19.4619L174.478 19.4183L173.953 19.3747C173.603 19.6365 173.428 19.9419 173.428 20.291C173.428 20.8147 174.084 21.0329 175.352 21.0329H177.539C178.938 21.0329 180.031 21.3383 180.775 21.9492C181.518 22.5601 181.868 23.4328 181.868 24.611C181.868 26.0947 181.256 27.2729 179.988 28.1019C178.72 28.931 176.927 29.3674 174.565 29.3674C172.772 29.3674 171.373 29.0619 170.455 28.4074C169.493 27.7965 169.012 26.9238 169.012 25.7892C169.012 25.0038 169.274 24.3492 169.755 23.8256C170.236 23.3019 170.936 22.9529 171.898 22.691C171.548 22.5165 171.242 22.2983 170.936 21.9492C170.63 21.6001 170.542 21.251 170.542 20.8583C170.542 20.3783 170.673 19.9419 170.98 19.6365C171.286 19.331 171.679 18.9819 172.204 18.6765C171.548 18.371 170.98 17.9347 170.586 17.2801C170.192 16.6256 169.974 15.8838 169.974 15.011C169.974 13.6147 170.411 12.5238 171.329 11.7383C172.248 10.9529 173.56 10.6038 175.265 10.6038C175.615 10.6038 176.052 10.6474 176.533 10.691C177.014 10.7783 177.364 10.8219 177.495 10.8219H181.999ZM172.073 25.5274C172.073 26.0074 172.291 26.4001 172.772 26.6619C173.253 26.9238 173.909 27.0547 174.74 27.0547C176.008 27.0547 176.97 26.8801 177.714 26.531C178.413 26.1819 178.763 25.7456 178.763 25.1347C178.763 24.6547 178.545 24.3056 178.107 24.131C177.67 23.9565 177.014 23.8692 176.14 23.8692H174.303C173.647 23.8692 173.122 24.0001 172.685 24.3056C172.248 24.611 172.073 25.0038 172.073 25.5274ZM173.341 15.011C173.341 15.7092 173.516 16.2765 173.822 16.6692C174.128 17.0619 174.609 17.2801 175.265 17.2801C175.921 17.2801 176.402 17.0619 176.708 16.6692C177.014 16.2765 177.189 15.7092 177.189 15.011C177.189 13.4838 176.533 12.6983 175.265 12.6983C173.997 12.6983 173.341 13.4838 173.341 15.011Z" fill="white"/>
</g>
<path id="Vector_16" d="M43.293 30.1528L53.5255 36.0001L54.6625 30.371" fill="#FF0000"/>
</g>
</svg>
