<svg width="126" height="44" viewBox="0 0 126 44" fill="none" xmlns="http://www.w3.org/2000/svg">
<path d="M47.6416 23.4297C44.5198 23.4297 42.1797 21.1628 42.1797 17.3352C42.1797 13.4978 44.5198 11.2407 47.6416 11.2407C50.7585 11.2407 53.1035 13.5027 53.1035 17.3352C53.1035 21.1678 50.7585 23.4297 47.6416 23.4297ZM47.6416 13.1669C45.7072 13.1669 44.3417 14.6337 44.3417 17.3352C44.3417 20.0368 45.7072 21.5036 47.6416 21.5036C49.581 21.5036 50.9415 20.0368 50.9415 17.3352C50.9415 14.6337 49.581 13.1669 47.6416 13.1669Z" fill="white"/>
<path d="M57.1573 23.2718H55.0547V14.3671H57.0633V15.8783H57.1672C57.5729 14.8856 58.4882 14.2485 59.824 14.2485C61.6644 14.2485 62.8815 15.4635 62.8765 17.5971V23.2668H60.7739V17.928C60.7739 16.7377 60.1258 16.0265 59.0373 16.0265C57.9291 16.0265 57.1524 16.7673 57.1524 18.0564V23.2718H57.1573Z" fill="white"/>
<path d="M67.1183 23.2718H65.0156V11.4038H67.1183V23.2718Z" fill="white"/>
<path d="M69.2106 26.388L69.7004 24.7532C70.6157 25.0199 71.2341 24.9508 71.62 23.9383L71.7981 23.4593L68.5625 14.3718H70.7938L72.8469 21.0936H72.9409L75.004 14.3718L77.2501 14.3817L73.6682 24.3483C73.1636 25.7706 72.2186 26.6102 70.581 26.6102C70.0071 26.6053 69.4976 26.5016 69.2106 26.388Z" fill="white"/>
<path d="M42.4844 28.6106H50.2171V30.4133H44.6414V33.6383H49.8213V35.441H44.6414V38.6809H50.2666V40.4835H42.4844V28.6106Z" fill="white"/>
<path d="M57.1137 40.4787H54.7934L51.6172 31.5789H53.8584L55.9066 38.1871H56.0006L58.0537 31.574H60.29L57.1137 40.4787Z" fill="white"/>
<path d="M61.0469 36.078C61.0469 33.332 62.7141 31.4602 65.267 31.4602C67.4636 31.4602 69.3436 32.8332 69.3436 35.9595V36.6015H63.1297C63.1495 38.1276 64.045 39.0166 65.4055 39.0166C66.3109 39.0166 67.0085 38.6215 67.2905 37.8708L69.2546 38.093C68.8835 39.6389 67.4537 40.6563 65.3758 40.6563C62.6894 40.6514 61.0469 38.8734 61.0469 36.078ZM67.3251 35.1841C67.3152 33.9741 66.4989 33.09 65.2917 33.09C64.04 33.09 63.194 34.0481 63.1297 35.1841H67.3251Z" fill="white"/>
<path d="M71.1094 31.574H73.1477V33.0556H73.2417C73.5682 32.0234 74.4192 31.4456 75.4433 31.4456C75.6758 31.4456 76.0073 31.4703 76.2002 31.5048V33.4359C76.0221 33.3766 75.5769 33.3124 75.2256 33.3124C74.0729 33.3124 73.217 34.1125 73.217 35.2435V40.4787H71.1143V31.574H71.1094Z" fill="white"/>
<path d="M77.8122 43.595L78.302 41.9603C79.2172 42.227 79.8356 42.1578 80.2215 41.1454L80.3996 40.6663L77.1641 31.5789H79.3953L81.4485 38.3006H81.5425L83.6056 31.5789L85.8517 31.5887L82.2698 41.5553C81.7651 42.9777 80.8202 43.8173 79.1826 43.8173C78.6038 43.8123 78.0942 43.7086 77.8122 43.595Z" fill="white"/>
<path d="M91.7554 33.1986H89.9942V37.8016C89.9942 38.6462 90.4197 38.8338 90.9441 38.8338C91.2063 38.8338 91.4438 38.7795 91.5575 38.7499L91.9138 40.3896C91.6862 40.4636 91.2755 40.5822 90.6769 40.597C89.0987 40.6414 87.8767 39.8216 87.8915 38.1473V33.1986H86.625V31.5738H87.8915V29.4402H89.9942V31.5738H91.7554V33.1986Z" fill="white"/>
<path d="M95.798 40.4786H93.6953V28.6106H95.7485V33.0901H95.8524C96.263 32.0826 97.1337 31.4603 98.5042 31.4603C100.354 31.4603 101.576 32.6604 101.576 34.8088V40.4786H99.4739V35.1348C99.4739 33.9346 98.8257 33.2333 97.7225 33.2333C96.5945 33.2333 95.793 33.9742 95.793 35.2632V40.4786H95.798Z" fill="white"/>
<path d="M103.547 29.1785C103.547 28.5463 104.091 28.0376 104.764 28.0376C105.432 28.0376 105.976 28.5463 105.976 29.1785C105.976 29.8057 105.432 30.3144 104.764 30.3144C104.096 30.3095 103.547 29.8008 103.547 29.1785ZM103.71 31.5738H105.813V40.4736H103.71V31.5738Z" fill="white"/>
<path d="M110.071 40.4785H107.969V31.5738H109.977V33.09H110.081C110.487 32.0973 111.402 31.4602 112.738 31.4602C114.578 31.4602 115.796 32.6752 115.791 34.8087V40.4785H113.688V35.1347C113.688 33.9444 113.04 33.2332 111.951 33.2332C110.843 33.2332 110.066 33.9741 110.066 35.2631V40.4785H110.071Z" fill="white"/>
<path d="M117.877 41.7527L119.772 41.2934C120.029 41.8169 120.583 42.4096 121.85 42.4096C123.047 42.4096 123.918 41.8712 123.918 40.5625V38.8783H123.814C123.487 39.5302 122.775 40.3501 121.246 40.3501C119.193 40.3501 117.57 38.903 117.57 35.999C117.57 33.0703 119.188 31.4602 121.251 31.4602C122.824 31.4602 123.492 32.4035 123.809 33.0456H123.923V31.5738H125.996V40.6217C125.996 42.8985 124.22 43.9999 121.81 43.9999C119.539 43.9999 118.258 42.9973 117.877 41.7527ZM123.923 35.9842C123.923 34.2951 123.181 33.1789 121.825 33.1789C120.425 33.1789 119.708 34.3692 119.708 35.9842C119.708 37.6239 120.44 38.7005 121.825 38.7005C123.171 38.7005 123.923 37.6831 123.923 35.9842Z" fill="white"/>
<path d="M28.3138 30.6603C29.8475 29.228 30.9854 27.4994 31.7275 25.5733C33.1127 21.7704 32.7664 17.0291 30.1938 13.8189C27.2253 10.1147 21.9316 10.905 17.8748 11.8433C13.62 12.8311 9.21687 15.0536 7.68318 19.3997C6.79265 21.9185 7.23791 24.8324 8.22739 27.2525C8.9695 29.1292 10.2063 30.9072 12.0863 31.648C12.2348 31.895 12.4821 32.0925 12.8779 32.0925C14.6095 32.0925 15.3516 33.9199 15.7474 35.3521C15.8464 35.6979 15.9453 36.0436 15.9948 36.3893C15.6979 36.6856 15.5495 37.1301 15.7969 37.5252C15.8958 37.7228 16.0937 37.8709 16.2916 37.9203C16.3411 38.1673 16.3906 38.4636 16.44 38.7105C15.8464 39.155 16.0443 40.291 16.8853 40.3404C16.8853 40.3898 16.9348 40.4391 16.9348 40.4885C17.1822 41.2294 17.5779 41.8714 18.2211 42.3653C18.9632 42.9086 19.9032 42.9086 20.7937 42.9086C22.5253 42.9086 24.6032 43.2049 25.7411 41.6245C26.2359 40.933 26.4832 40.1428 26.5822 39.3032C26.8296 39.0563 26.978 38.6612 26.879 38.3154C26.8296 38.2167 26.7801 38.1179 26.7306 38.0191C26.7801 37.5252 26.7801 36.982 26.7801 36.4881C27.0275 36.4387 27.2748 36.4387 27.5717 36.3893C28.0664 36.3399 28.5117 35.9942 28.5117 35.4509C28.5117 35.0064 28.0664 34.4632 27.5717 34.5125C27.1759 34.5619 26.7306 34.6113 26.3348 34.6113C26.3348 34.1174 26.3843 33.6236 26.4832 33.1297C26.879 32.1913 27.5222 31.4505 28.3138 30.6603ZM21.9811 37.0314C22.8716 36.9326 23.7622 36.8338 24.6527 36.7844C24.7022 36.982 24.8506 37.1795 25.0485 37.2783C25.0485 37.4758 25.0485 37.6734 24.999 37.871C22.7727 38.2167 20.5464 38.4142 18.3201 38.513C18.2211 38.1673 18.1716 37.8216 18.0727 37.4758C18.419 37.4265 18.7653 37.3771 19.1116 37.3277C20.1011 37.2289 21.0411 37.1301 21.9811 37.0314ZM23.4653 41.0318C22.4759 41.18 21.3874 41.0812 20.398 41.0812C19.6064 41.0812 19.1611 40.8342 18.8643 40.291C20.7937 40.1922 22.7727 39.9946 24.7022 39.7477C24.5043 40.3898 24.2074 40.933 23.4653 41.0318ZM22.3274 35.1546C22.3274 35.0064 22.278 34.8583 22.278 34.7101C22.2285 34.3644 22.2285 34.0681 22.179 33.7223C22.1295 33.0803 22.0801 32.4382 22.0306 31.7468C21.9316 30.4627 21.8327 29.228 21.7338 27.9439C21.6843 27.3513 21.6348 26.7092 21.5853 26.1165C21.5853 25.8202 21.5853 25.4745 21.5359 25.1782C22.3274 24.8324 23.7127 24.0916 23.6632 23.1039C23.6632 22.7088 23.4159 22.3136 22.9706 22.2149C22.5748 22.1161 22.278 22.2149 21.9811 22.4618C21.8327 22.5606 21.7832 22.7581 21.7338 22.9063C21.4864 23.1532 21.1401 23.3014 20.7937 23.4496C20.5959 23.3508 20.398 23.3508 20.2001 23.4002C20.0516 23.4496 19.8537 23.499 19.7053 23.5484C19.6559 23.5484 19.458 23.5977 19.458 23.5977C19.6064 23.5977 19.6064 23.5977 19.5074 23.5977H19.458C19.1116 23.6471 18.8148 23.5977 18.518 23.5977H18.4685C18.3695 23.5977 18.3201 23.5484 18.2211 23.5484C18.0727 23.499 17.9243 23.4496 17.7758 23.4002C17.7264 23.4002 17.6274 23.3508 17.5779 23.3014C17.7264 23.3508 17.7264 23.3508 17.6274 23.3014C17.5779 23.3014 17.5285 23.252 17.5285 23.252C17.3801 23.2026 17.2316 23.1039 17.0832 23.0051C16.6874 22.7581 16.0443 22.9063 15.7969 23.3508C15.5495 23.7953 15.6979 24.3386 16.1432 24.6349C17.1822 25.2769 18.4685 25.5733 19.7053 25.4251C19.8043 26.8574 19.9032 28.2896 20.0516 29.7713C20.1506 31.3023 20.299 32.784 20.398 34.315C20.398 34.6113 20.398 34.957 20.4474 35.3028C19.8043 35.3521 19.1611 35.4015 18.518 35.5003C18.2211 35.5497 17.9737 35.5497 17.6769 35.5991C17.5285 34.957 17.3306 34.315 17.1327 33.7223C16.539 32.0925 15.3516 30.6603 13.6695 30.3145C13.5706 30.1664 13.4221 30.0676 13.2242 30.0182C11.5916 29.6231 10.5527 28.0921 9.95897 26.6104C9.16739 24.6843 8.72213 22.4124 9.26634 20.3381C10.3053 16.4858 14.3127 14.5103 17.9243 13.6707C21.338 12.8311 26.2853 11.7939 28.8085 15.0042C31.0348 17.8193 31.1338 22.0173 29.8475 25.2769C29.5011 26.1659 29.0064 27.0549 28.4127 27.8451C27.7696 28.6847 26.9285 29.3268 26.2359 30.117C24.999 31.4999 24.6527 33.1791 24.6032 34.9077C23.8117 35.0064 23.0695 35.1052 22.3274 35.1546Z" fill="white"/>
<path d="M18.2223 8.78121C18.7171 8.92938 19.2118 8.63305 19.3602 8.13917C19.7065 6.95385 19.7065 5.71914 19.6076 4.48444C19.4592 3.20034 19.2613 1.96563 19.0634 0.68154C19.0139 0.187658 18.3707 -0.108672 17.9255 0.0394928C17.3813 0.187658 17.1834 0.68154 17.2823 1.17542C17.4307 2.26196 17.6286 3.39789 17.7276 4.48444C17.8265 5.52159 17.876 6.60813 17.5792 7.64528C17.4307 8.08978 17.7276 8.63305 18.2223 8.78121Z" fill="#00A3C9"/>
<path d="M38.7491 6.95389C36.8691 8.13921 35.0385 9.32453 33.1585 10.5098C32.7628 10.7568 32.5649 11.3494 32.8122 11.7939C33.0596 12.189 33.6533 12.3866 34.0985 12.1397C35.9786 10.9543 37.8091 9.76902 39.6891 8.5837C40.0849 8.33676 40.2828 7.7441 40.0354 7.29961C39.7386 6.85511 39.1944 6.65756 38.7491 6.95389Z" fill="#00A3C9"/>
<path d="M4.76317 17.6712C5.20844 17.8687 5.80212 17.8193 6.04949 17.3255C6.24739 16.9304 6.19791 16.2883 5.70317 16.0414C4.91159 15.6956 4.16948 15.3005 3.47685 14.856C3.13053 14.6585 2.78422 14.4116 2.4379 14.1646C2.28948 14.0658 2.09158 13.9177 1.94316 13.8189C1.89369 13.7695 1.84421 13.7695 1.84421 13.7201C1.74527 13.6707 1.64632 13.5719 1.59684 13.5226C1.20105 13.2262 0.656841 13.1275 0.26105 13.5226C-0.0357934 13.8683 -0.134741 14.5103 0.26105 14.856C1.59684 15.992 3.13053 16.9304 4.76317 17.6712Z" fill="#00A3C9"/>
<path d="M8.92171 10.658C9.16908 11.0037 9.41645 11.3494 9.66382 11.7445C9.91119 12.1397 10.5049 12.3372 10.9501 12.0903C11.3954 11.7939 11.5438 11.2507 11.2965 10.8062C10.7028 9.8184 10.0101 8.88003 9.16908 8.1392C8.82276 7.79348 8.1796 7.74409 7.83329 8.1392C7.48697 8.48492 7.4375 9.07758 7.83329 9.47268C8.1796 9.8184 8.57539 10.2135 8.92171 10.658Z" fill="#00A3C9"/>
<path d="M27.9207 8.87987C28.6628 7.1019 29.4544 5.27453 30.1965 3.49655C30.3944 3.05206 30.3449 2.4594 29.8502 2.21246C29.4544 2.01491 28.7618 2.06429 28.5639 2.55818C27.8218 4.33615 27.0302 6.16352 26.2881 7.9415C26.0902 8.38599 26.1397 8.97865 26.6344 9.22559C27.0302 9.42314 27.7228 9.37376 27.9207 8.87987Z" fill="#00A3C9"/>
</svg>
