<svg width="91" height="33" viewBox="0 0 91 33" fill="none" xmlns="http://www.w3.org/2000/svg">
<path d="M34.4057 17.5399C32.151 17.5399 30.4609 15.8912 30.4609 13.1075C30.4609 10.3166 32.151 8.67511 34.4057 8.67511C36.6567 8.67511 38.3504 10.3202 38.3504 13.1075C38.3504 15.8948 36.6567 17.5399 34.4057 17.5399ZM34.4057 10.0759C33.0086 10.0759 32.0224 11.1427 32.0224 13.1075C32.0224 15.0722 33.0086 16.139 34.4057 16.139C35.8063 16.139 36.7889 15.0722 36.7889 13.1075C36.7889 11.1427 35.8063 10.0759 34.4057 10.0759Z" fill="black"/>
<path d="M41.2764 17.4249H39.7578V10.9488H41.2085V12.0479H41.2835C41.5765 11.3259 42.2376 10.8626 43.2023 10.8626C44.5315 10.8626 45.4105 11.7462 45.4069 13.2979V17.4213H43.8883V13.5385C43.8883 12.6729 43.4203 12.1556 42.6342 12.1556C41.8338 12.1556 41.2728 12.6944 41.2728 13.6319V17.4249H41.2764Z" fill="black"/>
<path d="M48.4717 17.4249H46.9531V8.79364H48.4717V17.4249Z" fill="black"/>
<path d="M49.9837 19.6914L50.3374 18.5025C50.9985 18.6964 51.4451 18.6462 51.7238 17.9098L51.8524 17.5614L49.5156 10.9524H51.1271L52.6099 15.8409H52.6778L54.1678 10.9524L55.79 10.9595L53.2031 18.2079C52.8386 19.2424 52.1562 19.853 50.9735 19.853C50.559 19.8494 50.1909 19.774 49.9837 19.6914Z" fill="black"/>
<path d="M30.6797 21.3077H36.2645V22.6188H32.2376V24.9643H35.9786V26.2753H32.2376V28.6316H36.3002V29.9426H30.6797V21.3077Z" fill="black"/>
<path d="M41.2432 29.939H39.5674L37.2734 23.4665H38.8921L40.3713 28.2724H40.4392L41.9221 23.4629H43.5371L41.2432 29.939Z" fill="black"/>
<path d="M44.0859 26.7387C44.0859 24.7416 45.2901 23.3802 47.1338 23.3802C48.7203 23.3802 50.078 24.3788 50.078 26.6524V27.1194H45.5902C45.6045 28.2293 46.2512 28.8758 47.2338 28.8758C47.8877 28.8758 48.3915 28.5885 48.5952 28.0425L50.0137 28.2041C49.7457 29.3284 48.7131 30.0683 47.2124 30.0683C45.2722 30.0647 44.0859 28.7717 44.0859 26.7387ZM48.6202 26.0885C48.6131 25.2085 48.0235 24.5656 47.1517 24.5656C46.2477 24.5656 45.6367 25.2624 45.5902 26.0885H48.6202Z" fill="black"/>
<path d="M51.3594 23.4629H52.8315V24.5404H52.8994C53.1352 23.7897 53.7498 23.3695 54.4894 23.3695C54.6574 23.3695 54.8968 23.3874 55.0361 23.4126V24.817C54.9075 24.7739 54.5859 24.7272 54.3322 24.7272C53.4997 24.7272 52.8815 25.3091 52.8815 26.1316V29.939H51.3629V23.4629H51.3594Z" fill="black"/>
<path d="M56.1946 32.2055L56.5484 31.0166C57.2094 31.2105 57.656 31.1602 57.9347 30.4239L58.0634 30.0755L55.7266 23.4664H57.338L58.8209 28.355H58.8888L60.3788 23.4664L62.0009 23.4736L59.414 30.722C59.0496 31.7565 58.3671 32.3671 57.1844 32.3671C56.7663 32.3635 56.3983 32.2881 56.1946 32.2055Z" fill="black"/>
<path d="M66.26 24.6446H64.988V27.9922C64.988 28.6064 65.2953 28.7429 65.674 28.7429C65.8634 28.7429 66.0349 28.7034 66.1171 28.6818L66.3743 29.8743C66.21 29.9282 65.9134 30.0144 65.4811 30.0252C64.3412 30.0575 63.4587 29.4613 63.4694 28.2436V24.6446H62.5547V23.4629H63.4694V21.9112H64.988V23.4629H66.26V24.6446Z" fill="black"/>
<path d="M69.1826 29.939H67.6641V21.3077H69.1469V24.5656H69.2219C69.5185 23.8328 70.1474 23.3802 71.1371 23.3802C72.4735 23.3802 73.356 24.2531 73.356 25.8155V29.939H71.8375V26.0526C71.8375 25.1798 71.3694 24.6697 70.5726 24.6697C69.7579 24.6697 69.1791 25.2085 69.1791 26.146V29.939H69.1826Z" fill="black"/>
<path d="M74.7812 21.7208C74.7812 21.261 75.1743 20.8911 75.6602 20.8911C76.1426 20.8911 76.5356 21.261 76.5356 21.7208C76.5356 22.177 76.1426 22.5469 75.6602 22.5469C75.1779 22.5433 74.7812 22.1734 74.7812 21.7208ZM74.8992 23.4628H76.4177V29.9354H74.8992V23.4628Z" fill="black"/>
<path d="M79.4951 29.939H77.9766V23.4629H79.4272V24.5656H79.5023C79.7953 23.8436 80.4563 23.3802 81.421 23.3802C82.7502 23.3802 83.6292 24.2639 83.6257 25.8155V29.939H82.1071V26.0526C82.1071 25.187 81.639 24.6697 80.8529 24.6697C80.0525 24.6697 79.4916 25.2085 79.4916 26.146V29.939H79.4951Z" fill="black"/>
<path d="M85.1356 30.8657L86.5041 30.5317C86.6899 30.9124 87.0901 31.3434 88.0048 31.3434C88.8695 31.3434 89.4984 30.9519 89.4984 30.0001V28.7752H89.4233C89.1875 29.2494 88.673 29.8456 87.5689 29.8456C86.086 29.8456 84.9141 28.7932 84.9141 26.6812C84.9141 24.5512 86.0825 23.3802 87.5725 23.3802C88.7087 23.3802 89.1911 24.0663 89.4198 24.5332H89.5019V23.4629H90.9991V30.0432C90.9991 31.699 89.7163 32.5 87.9762 32.5C86.3362 32.5 85.4107 31.7709 85.1356 30.8657ZM89.5019 26.6704C89.5019 25.442 88.966 24.6302 87.9869 24.6302C86.9757 24.6302 86.4576 25.4959 86.4576 26.6704C86.4576 27.8629 86.9865 28.6459 87.9869 28.6459C88.9588 28.6459 89.5019 27.906 89.5019 26.6704Z" fill="black"/>
<path d="M20.4497 22.7983C21.5574 21.7567 22.3792 20.4995 22.9151 19.0987C23.9156 16.333 23.6655 12.8848 21.8075 10.5501C19.6636 7.85615 15.8404 8.43085 12.9104 9.11331C9.83756 9.83168 6.65749 11.448 5.54983 14.6089C4.90667 16.4407 5.22825 18.5599 5.94287 20.32C6.47884 21.6849 7.37212 22.9779 8.7299 23.5167C8.83709 23.6963 9.01575 23.84 9.3016 23.84C10.5522 23.84 11.0882 25.169 11.374 26.2106C11.4455 26.4621 11.5169 26.7135 11.5527 26.9649C11.3383 27.1804 11.2311 27.5037 11.4097 27.791C11.4812 27.9347 11.6241 28.0425 11.767 28.0784C11.8028 28.258 11.8385 28.4735 11.8742 28.6531C11.4455 28.9764 11.5884 29.8025 12.1958 29.8384C12.1958 29.8743 12.2315 29.9103 12.2315 29.9462C12.4102 30.485 12.6961 30.9519 13.1606 31.3111C13.6965 31.7062 14.3754 31.7062 15.0186 31.7062C16.2692 31.7062 17.7699 31.9217 18.5917 30.7723C18.949 30.2694 19.1277 29.6947 19.1991 29.0841C19.3778 28.9045 19.485 28.6172 19.4135 28.3657C19.3778 28.2939 19.342 28.2221 19.3063 28.1502C19.342 27.791 19.342 27.3959 19.342 27.0368C19.5207 27.0008 19.6993 27.0008 19.9137 26.9649C20.271 26.929 20.5926 26.6776 20.5926 26.2825C20.5926 25.9592 20.271 25.5641 19.9137 25.6C19.6279 25.6359 19.3063 25.6718 19.0205 25.6718C19.0205 25.3127 19.0562 24.9535 19.1277 24.5943C19.4135 23.9118 19.878 23.373 20.4497 22.7983ZM15.8761 27.4319C16.5193 27.36 17.1624 27.2882 17.8056 27.2523C17.8413 27.3959 17.9485 27.5396 18.0914 27.6115C18.0914 27.7551 18.0914 27.8988 18.0557 28.0425C16.4478 28.2939 14.8399 28.4376 13.232 28.5094C13.1606 28.258 13.1248 28.0066 13.0534 27.7551C13.3035 27.7192 13.5536 27.6833 13.8037 27.6474C14.5183 27.5755 15.1972 27.5037 15.8761 27.4319ZM16.9481 30.3413C16.2334 30.449 15.4473 30.3772 14.7327 30.3772C14.161 30.3772 13.8394 30.1976 13.6251 29.8025C15.0186 29.7307 16.4478 29.587 17.8413 29.4074C17.6984 29.8743 17.484 30.2694 16.9481 30.3413ZM16.1262 26.0669C16.1262 25.9592 16.0905 25.8514 16.0905 25.7437C16.0548 25.4922 16.0548 25.2767 16.019 25.0253C15.9833 24.5584 15.9476 24.0914 15.9119 23.5886C15.8404 22.6547 15.7689 21.7567 15.6975 20.8228C15.6617 20.3918 15.626 19.9248 15.5903 19.4938C15.5903 19.2783 15.5903 19.0269 15.5545 18.8114C16.1262 18.5599 17.1267 18.0212 17.091 17.3028C17.091 17.0154 16.9123 16.7281 16.5907 16.6562C16.3049 16.5844 16.0905 16.6562 15.8761 16.8358C15.7689 16.9077 15.7332 17.0513 15.6975 17.1591C15.5188 17.3387 15.2687 17.4465 15.0186 17.5542C14.8756 17.4824 14.7327 17.4824 14.5898 17.5183C14.4826 17.5542 14.3397 17.5901 14.2325 17.626C14.1968 17.626 14.0538 17.662 14.0538 17.662C14.161 17.662 14.161 17.662 14.0896 17.662H14.0538C13.8037 17.6979 13.5893 17.662 13.3749 17.662H13.3392C13.2678 17.662 13.232 17.626 13.1606 17.626C13.0534 17.5901 12.9462 17.5542 12.839 17.5183C12.8032 17.5183 12.7318 17.4824 12.6961 17.4465C12.8032 17.4824 12.8032 17.4824 12.7318 17.4465C12.6961 17.4465 12.6603 17.4105 12.6603 17.4105C12.5531 17.3746 12.4459 17.3028 12.3387 17.2309C12.0529 17.0513 11.5884 17.1591 11.4097 17.4824C11.2311 17.8056 11.3383 18.2007 11.6599 18.4163C12.4102 18.8832 13.3392 19.0987 14.2325 18.991C14.304 20.0326 14.3754 21.0742 14.4826 22.1518C14.5541 23.2653 14.6613 24.3429 14.7327 25.4563C14.7327 25.6718 14.7327 25.9233 14.7685 26.1747C14.304 26.2106 13.8394 26.2465 13.3749 26.3184C13.1606 26.3543 12.9819 26.3543 12.7675 26.3902C12.6603 25.9233 12.5174 25.4563 12.3745 25.0253C11.9457 23.84 11.0882 22.7983 9.87329 22.5469C9.80183 22.4392 9.69464 22.3673 9.55171 22.3314C8.37259 22.0441 7.62223 20.9306 7.19346 19.853C6.62176 18.4522 6.30018 16.7999 6.69322 15.2913C7.44358 12.4897 10.3378 11.0529 12.9462 10.4423C15.4116 9.83168 18.9847 9.07739 20.807 11.4121C22.4149 13.4595 22.4864 16.5126 21.5574 18.8832C21.3073 19.5297 20.9499 20.1763 20.5212 20.751C20.0567 21.3616 19.4492 21.8285 18.949 22.4032C18.0557 23.409 17.8056 24.6302 17.7699 25.8874C17.1982 25.9592 16.6622 26.031 16.1262 26.0669Z" fill="black"/>
<path d="M13.1575 6.88635C13.5148 6.99411 13.8722 6.77859 13.9793 6.41941C14.2295 5.55736 14.2295 4.65939 14.158 3.76142C14.0508 2.82753 13.9079 1.92957 13.765 0.995678C13.7292 0.636491 13.2647 0.420978 12.9431 0.528735C12.5501 0.636491 12.4072 0.995678 12.4786 1.35487C12.5858 2.14508 12.7288 2.97121 12.8002 3.76142C12.8717 4.51571 12.9074 5.30593 12.693 6.06022C12.5858 6.38349 12.8002 6.77859 13.1575 6.88635Z" fill="#00A3C9"/>
<path d="M27.9837 5.55735C26.6259 6.4194 25.3039 7.28145 23.9461 8.1435C23.6603 8.3231 23.5173 8.75412 23.696 9.07739C23.8746 9.36474 24.3034 9.50841 24.625 9.32882C25.9828 8.46677 27.3048 7.60472 28.6626 6.74267C28.9485 6.56308 29.0914 6.13205 28.9127 5.80879C28.6983 5.48552 28.3053 5.34184 27.9837 5.55735Z" fill="#00A3C9"/>
<path d="M3.44007 13.3517C3.76165 13.4954 4.19042 13.4595 4.36908 13.1003C4.512 12.8129 4.47627 12.346 4.11896 12.1664C3.54726 11.915 3.01129 11.6276 2.51106 11.3044C2.26094 11.1607 2.01082 10.9811 1.7607 10.8015C1.65351 10.7297 1.51059 10.6219 1.40339 10.5501C1.36766 10.5141 1.33193 10.5141 1.33193 10.4782C1.26047 10.4423 1.18901 10.3705 1.15328 10.3345C0.867427 10.119 0.474385 10.0472 0.188536 10.3345C-0.0258508 10.586 -0.097313 11.0529 0.188536 11.3044C1.15328 12.1305 2.26094 12.8129 3.44007 13.3517Z" fill="#00A3C9"/>
<path d="M6.44042 8.25126C6.61908 8.50269 6.79773 8.75412 6.97639 9.04147C7.15504 9.32882 7.58382 9.47249 7.9054 9.2929C8.22698 9.07739 8.33417 8.68228 8.15551 8.35901C7.72674 7.64064 7.2265 6.95818 6.61908 6.4194C6.36896 6.16797 5.90445 6.13205 5.65434 6.4194C5.40422 6.67083 5.36849 7.10186 5.65434 7.38921C5.90445 7.64064 6.1903 7.92799 6.44042 8.25126Z" fill="#00A3C9"/>
<path d="M20.1637 6.95818C20.6996 5.66511 21.2713 4.33612 21.8073 3.04304C21.9502 2.71977 21.9145 2.28875 21.5572 2.10915C21.2713 1.96548 20.7711 2.0014 20.6282 2.36059C20.0922 3.65366 19.5205 4.98265 18.9845 6.27573C18.8416 6.599 18.8773 7.03002 19.2347 7.20962C19.5205 7.35329 20.0207 7.31737 20.1637 6.95818Z" fill="#00A3C9"/>
</svg>
