<svg width="182" height="36" viewBox="0 0 182 36" fill="none" xmlns="http://www.w3.org/2000/svg">
<g id="Frame" clip-path="url(#clip0_1125_32862)">
<g id="Group">
<path id="Vector" d="M54.4863 31.2873H5.33494L0 0L59.9087 4.10182L54.4863 31.2873Z" fill="#FF0000"/>
<g id="Group_2">
<path id="Vector_2" d="M10.5833 29.3673C9.66495 29.3673 8.92156 29.28 8.26562 29.0618V26.3127C8.79037 26.4436 9.35885 26.5309 9.92733 26.5309C10.5395 26.5309 10.9331 26.3564 11.2392 26.0509C11.5453 25.7455 11.6328 25.2218 11.6328 24.6109V10.8218H15.1311V25.0909C15.1311 26.4436 14.7375 27.4909 13.9504 28.2327C13.1633 28.9745 12.0263 29.3673 10.5833 29.3673ZM11.4578 7.50545C11.4578 6.37091 12.1138 5.80363 13.3819 5.80363C14.6501 5.80363 15.306 6.32727 15.306 7.50545C15.306 8.02909 15.1311 8.46545 14.825 8.77091C14.5189 9.07636 14.0378 9.20727 13.3819 9.20727C12.1138 9.20727 11.4578 8.64 11.4578 7.50545Z" fill="white"/>
<path id="Vector_3" d="M27.9448 23.6945L27.4638 22.0364H27.2889C26.939 22.6473 26.3706 23.1273 25.7146 23.4327C25.0587 23.7382 24.2278 23.9127 23.3533 23.9127C21.8227 23.9127 20.6858 23.52 19.9424 22.6909C19.199 21.8618 18.7617 20.7273 18.7617 19.2V10.8218H22.26V18.3273C22.26 19.2436 22.435 19.9418 22.7411 20.4218C23.0909 20.9018 23.6156 21.12 24.3153 21.12C25.2773 21.12 26.0207 20.7709 26.458 20.1164C26.8953 19.4618 27.114 18.3709 27.114 16.8436V10.8218H30.6123V23.6945H27.9448Z" fill="white"/>
<path id="Vector_4" d="M43.3375 19.8545C43.3375 21.1636 42.8565 22.1673 41.9382 22.8655C41.0199 23.5636 39.6643 23.9127 37.8276 23.9127C36.9093 23.9127 36.0785 23.8691 35.4226 23.7382C34.7666 23.6073 34.1544 23.4327 33.5859 23.1709V20.2909C34.2419 20.5964 34.9853 20.8582 35.8161 21.0327C36.647 21.2509 37.3466 21.3382 38.0026 21.3382C39.2707 21.3382 39.9266 20.9891 39.9266 20.2473C39.9266 19.9855 39.8392 19.7673 39.6643 19.5927C39.4893 19.4182 39.1395 19.2 38.746 18.9818C38.3087 18.7636 37.7839 18.5018 37.0843 18.24C36.0785 17.8473 35.3788 17.4545 34.8978 17.1055C34.4168 16.7127 34.1107 16.32 33.892 15.84C33.6734 15.4036 33.5859 14.8364 33.5859 14.1818C33.5859 13.0473 34.0232 12.1745 34.8978 11.52C35.7724 10.9091 37.0405 10.6036 38.6585 10.6036C40.189 10.6036 41.7195 10.9527 43.2063 11.6073L42.1568 14.1382C41.5009 13.8327 40.8887 13.6145 40.3202 13.44C39.7955 13.2655 39.1832 13.1782 38.6148 13.1782C37.5653 13.1782 37.0405 13.44 37.0405 14.0073C37.0405 14.3127 37.2154 14.5745 37.5653 14.8364C37.9151 15.0545 38.6148 15.4036 39.7517 15.84C40.7575 16.2764 41.5009 16.6691 41.9819 17.0182C42.4629 17.3673 42.8128 17.76 43.0314 18.24C43.25 18.6764 43.3375 19.2436 43.3375 19.8545Z" fill="white"/>
<path id="Vector_5" d="M51.5148 21.12C52.127 21.12 52.8704 20.9891 53.7449 20.7273V23.3455C52.8704 23.7382 51.7771 23.9127 50.509 23.9127C49.1097 23.9127 48.0602 23.5636 47.448 22.8655C46.8358 22.1673 46.4859 21.0764 46.4859 19.68V13.44H44.8242V11.9564L46.7483 10.7782L47.7541 8.07272H49.9842V10.8218H53.6137V13.44H49.9842V19.6364C49.9842 20.1164 50.1154 20.5091 50.4215 20.7273C50.6839 20.9891 51.0775 21.12 51.5148 21.12Z" fill="white"/>
</g>
<g id="Group_3">
<path id="Vector_6" d="M66.8179 23.9127C64.7627 23.9127 63.101 23.3455 61.964 22.2109C60.827 21.0764 60.2148 19.4618 60.2148 17.3673C60.2148 15.2291 60.7396 13.5273 61.8328 12.3491C62.926 11.1709 64.4128 10.56 66.3369 10.56C68.1735 10.56 69.5728 11.0836 70.5786 12.1309C71.5844 13.1782 72.1091 14.6182 72.1091 16.4073V18.1091H63.8006C63.8443 19.1127 64.1504 19.8982 64.6752 20.4655C65.2437 21.0327 65.9871 21.2945 66.9928 21.2945C67.78 21.2945 68.5233 21.2073 69.1793 21.0327C69.8352 20.8582 70.5786 20.5964 71.3657 20.2473V22.9527C70.7535 23.2582 70.0976 23.4764 69.3979 23.6509C68.6545 23.8255 67.8237 23.9127 66.8179 23.9127ZM66.3369 13.0909C65.5935 13.0909 65.025 13.3091 64.5877 13.7891C64.1505 14.2691 63.9318 14.9236 63.8443 15.7964H68.7857C68.7857 14.9236 68.5233 14.2691 68.0861 13.7891C67.6488 13.3091 67.0803 13.0909 66.3369 13.0909Z" fill="black"/>
<path id="Vector_7" d="M77.5305 23.6945L72.6328 10.8218H76.306L78.7986 18.1527C79.061 19.0691 79.2359 19.9418 79.3233 20.7709H79.4108C79.4545 20.0291 79.6294 19.1564 79.9356 18.1527L82.4281 10.8218H86.1013L81.2037 23.6945H77.5305Z" fill="black"/>
<path id="Vector_8" d="M93.275 23.9127C91.2197 23.9127 89.558 23.3455 88.421 22.2109C87.2841 21.0764 86.6719 19.4618 86.6719 17.3673C86.6719 15.2291 87.1966 13.5273 88.2899 12.3491C89.3831 11.1709 90.8699 10.56 92.7939 10.56C94.6305 10.56 96.0299 11.0836 97.0356 12.1309C98.0414 13.1782 98.5662 14.6182 98.5662 16.4073V18.1091H90.2576C90.3014 19.1127 90.6075 19.8982 91.1322 20.4655C91.7007 21.0327 92.4441 21.2945 93.4499 21.2945C94.237 21.2945 94.9804 21.2073 95.6363 21.0327C96.2923 20.8582 97.0356 20.5964 97.8228 20.2473V22.9527C97.2106 23.2582 96.5546 23.4764 95.855 23.6509C95.1553 23.8255 94.2807 23.9127 93.275 23.9127ZM92.7939 13.0909C92.0505 13.0909 91.4821 13.3091 91.0448 13.7891C90.6075 14.2691 90.3888 14.9236 90.3014 15.7964H95.2428C95.2428 14.9236 94.9804 14.2691 94.5431 13.7891C94.1058 13.3091 93.5373 13.0909 92.7939 13.0909Z" fill="black"/>
<path id="Vector_9" d="M108.141 10.56C108.622 10.56 109.016 10.6036 109.322 10.6473L109.059 13.9636C108.797 13.8764 108.447 13.8327 108.01 13.8327C106.873 13.8327 105.998 14.1382 105.386 14.7055C104.774 15.2727 104.424 16.1018 104.424 17.1055V23.6509H100.926V10.8218H103.593L104.118 13.0036H104.293C104.686 12.2618 105.211 11.6945 105.911 11.2582C106.567 10.7782 107.31 10.56 108.141 10.56Z" fill="black"/>
<path id="Vector_10" d="M109.324 10.8218H113.172L115.621 18.0654C115.84 18.6764 115.971 19.4182 116.058 20.2909H116.146C116.233 19.5054 116.408 18.7636 116.627 18.0654L119.032 10.8218H122.793L117.327 25.3527C116.846 26.7054 116.102 27.7091 115.184 28.3636C114.266 29.0182 113.172 29.3673 111.948 29.3673C111.336 29.3673 110.724 29.28 110.155 29.1927V26.3564C110.592 26.4436 111.03 26.4873 111.554 26.4873C112.167 26.4873 112.735 26.3127 113.172 25.92C113.61 25.5273 114.003 24.96 114.266 24.2182L114.484 23.5636L109.324 10.8218Z" fill="black"/>
<path id="Vector_11" d="M129.569 21.12C130.182 21.12 130.925 20.9891 131.8 20.7273V23.3455C130.925 23.7382 129.832 23.9127 128.564 23.9127C127.164 23.9127 126.115 23.5636 125.503 22.8655C124.89 22.1673 124.541 21.0764 124.541 19.68V13.44H122.879V11.9564L124.803 10.7782L125.809 8.07272H128.039V10.8218H131.668V13.44H128.039V19.6364C128.039 20.1164 128.17 20.5091 128.476 20.7273C128.739 20.9891 129.132 21.12 129.569 21.12Z" fill="black"/>
<path id="Vector_12" d="M145.836 23.6945H142.337V16.1891C142.337 14.3127 141.638 13.3964 140.238 13.3964C139.276 13.3964 138.533 13.7454 138.096 14.4C137.658 15.0545 137.44 16.1454 137.44 17.6291V23.6945H133.941V5.75999H137.44V9.42545C137.44 9.68727 137.396 10.3854 137.352 11.4327L137.309 12.48H137.483C138.271 11.2145 139.495 10.6036 141.2 10.6036C142.731 10.6036 143.868 10.9964 144.655 11.8254C145.442 12.6545 145.836 13.7891 145.836 15.3164V23.6945Z" fill="black"/>
<path id="Vector_13" d="M148.852 7.50545C148.852 6.37091 149.507 5.80363 150.776 5.80363C152.044 5.80363 152.7 6.37091 152.7 7.50545C152.7 8.02909 152.525 8.46545 152.219 8.77091C151.913 9.07636 151.432 9.20727 150.776 9.20727C149.464 9.20727 148.852 8.64 148.852 7.50545ZM152.525 23.6945H149.026V10.8218H152.525V23.6945Z" fill="black"/>
<path id="Vector_14" d="M167.655 23.6945H164.157V16.1891C164.157 15.2727 163.982 14.5745 163.676 14.0945C163.326 13.6145 162.801 13.3964 162.102 13.3964C161.14 13.3964 160.396 13.7455 159.959 14.4C159.522 15.0545 159.303 16.1455 159.303 17.6727V23.7382H155.805V10.8218H158.516L158.997 12.48H159.172C159.565 11.8691 160.09 11.3891 160.79 11.0836C161.489 10.7782 162.277 10.6036 163.151 10.6036C164.638 10.6036 165.775 10.9964 166.562 11.8255C167.349 12.6545 167.743 13.7891 167.743 15.3164V23.6945H167.655Z" fill="black"/>
<path id="Vector_15" d="M181.999 10.8218V12.6109L179.988 13.1345C180.338 13.7018 180.556 14.3564 180.556 15.0545C180.556 16.4509 180.075 17.4982 179.113 18.2836C178.151 19.0691 176.795 19.4618 175.09 19.4618L174.478 19.4182L173.953 19.3745C173.603 19.6364 173.428 19.9418 173.428 20.2909C173.428 20.8145 174.084 21.0327 175.352 21.0327H177.539C178.938 21.0327 180.031 21.3382 180.775 21.9491C181.518 22.56 181.868 23.4327 181.868 24.6109C181.868 26.0945 181.256 27.2727 179.988 28.1018C178.72 28.9309 176.927 29.3673 174.565 29.3673C172.772 29.3673 171.373 29.0618 170.455 28.4073C169.493 27.7964 169.012 26.9236 169.012 25.7891C169.012 25.0036 169.274 24.3491 169.755 23.8255C170.236 23.3018 170.936 22.9527 171.898 22.6909C171.548 22.5164 171.242 22.2982 170.936 21.9491C170.63 21.6 170.542 21.2509 170.542 20.8582C170.542 20.3782 170.673 19.9418 170.98 19.6364C171.286 19.3309 171.679 18.9818 172.204 18.6764C171.548 18.3709 170.98 17.9345 170.586 17.28C170.192 16.6255 169.974 15.8836 169.974 15.0109C169.974 13.6145 170.411 12.5236 171.329 11.7382C172.248 10.9527 173.56 10.6036 175.265 10.6036C175.615 10.6036 176.052 10.6473 176.533 10.6909C177.014 10.7782 177.364 10.8218 177.495 10.8218H181.999ZM172.073 25.5273C172.073 26.0073 172.291 26.4 172.772 26.6618C173.253 26.9236 173.909 27.0545 174.74 27.0545C176.008 27.0545 176.97 26.88 177.714 26.5309C178.413 26.1818 178.763 25.7455 178.763 25.1345C178.763 24.6545 178.545 24.3055 178.107 24.1309C177.67 23.9564 177.014 23.8691 176.14 23.8691H174.303C173.647 23.8691 173.122 24 172.685 24.3055C172.248 24.6109 172.073 25.0036 172.073 25.5273ZM173.341 15.0109C173.341 15.7091 173.516 16.2764 173.822 16.6691C174.128 17.0618 174.609 17.28 175.265 17.28C175.921 17.28 176.402 17.0618 176.708 16.6691C177.014 16.2764 177.189 15.7091 177.189 15.0109C177.189 13.4836 176.533 12.6982 175.265 12.6982C173.997 12.6982 173.341 13.4836 173.341 15.0109Z" fill="black"/>
</g>
<path id="Vector_16" d="M43.293 30.1527L53.5255 36L54.6625 30.3709" fill="#FF0000"/>
</g>
</g>
<defs>
<clipPath id="clip0_1125_32862">
<rect width="182" height="36" fill="white"/>
</clipPath>
</defs>
</svg>
